<svg xmlns="http://www.w3.org/2000/svg" width="223.692" height="532.178" viewBox="0 0 223.692 532.178"><path fill="currentColor" d="M223.285 450.202l-.004-83.984c0-22.606-8.071-41.987-24.223-58.139-16.421-16.42-36.337-24.492-59.758-24.225v-35.532c23.419.27 43.403-7.87 59.96-24.428 16.151-16.15 24.225-35.394 24.226-57.74l.199-83.376c.269-22.61-7.737-42.06-24.022-58.344C183.512 8.282 164.263.209 141.922.209L82.77.006C60.156-.26 40.78 7.68 24.63 23.83 8.477 39.979.401 59.364.401 81.972l.001 83.982c.001 22.612 8.077 41.992 24.228 58.143 16.418 16.418 36.337 24.495 59.757 24.223l-.001 35.533c-23.42-.268-43.404 7.873-59.96 24.429C8.273 324.434.203 343.674.2 366.02l-.194 83.377c-.265 22.612 7.735 42.058 24.02 58.342 16.153 16.153 35.39 24.224 57.739 24.226l59.153.206c22.614.263 41.994-7.67 58.145-23.82 16.145-16.153 24.219-35.532 24.222-58.15zm-83.988-256.785a687.506 687.506 0 01.101-7.569c.07-4.238.069-7.132.003-8.68-.068-1.549-.338-3.837-.806-6.868-.473-3.03-1.314-5.618-2.523-7.771-1.212-2.154-2.829-4.24-4.848-6.26-5.382-5.381-11.844-8.073-19.38-8.076-7.536-.002-13.994 2.692-19.379 8.077-2.017 2.017-3.634 4.103-4.846 6.257-1.213 2.155-2.054 4.746-2.524 7.773-.47 3.028-.74 5.317-.808 6.865-.07 1.545-.07 4.44-.002 8.68.068 4.24.101 6.761.1 7.57-8.208.132-15.14-2.628-20.79-8.279-5.519-5.518-8.28-11.911-8.28-19.176l-.003-83.987c.002-7.536 2.694-13.997 8.079-19.381 5.247-5.248 11.637-7.873 19.175-7.873l59.155.2c7.54.272 13.927 3.031 19.178 8.282 5.382 5.382 8.076 11.842 8.076 19.38l-.2 83.375c0 7.538-2.694 13.996-8.077 19.379-5.65 5.651-12.784 8.345-21.401 8.082zm1.834 284.046l-59.156-.203c-7.267-.273-13.593-3.095-18.98-8.481-5.521-5.522-8.275-11.905-8.275-19.175l.204-83.378c0-7.54 2.694-13.993 8.075-19.374 5.653-5.653 12.784-8.346 21.398-8.076.006.808-.033 3.334-.096 7.57-.068 4.24-.068 7.133 0 8.683.065 1.551.333 3.837.8 6.864.472 3.033 1.31 5.62 2.524 7.775 1.213 2.156 2.827 4.24 4.846 6.258 5.386 5.386 11.844 8.076 19.383 8.078 7.532-.003 13.996-2.692 19.377-8.073 2.018-2.018 3.63-4.109 4.845-6.258 1.21-2.158 2.055-4.746 2.518-7.78.467-3.028.746-5.313.811-6.865.063-1.544.063-4.439.001-8.683a1189.395 1189.395 0 01-.107-7.569c8.348-.266 15.347 2.424 20.995 8.073 5.386 5.386 8.077 11.842 8.072 19.377l.004 83.983c0 7.541-2.695 14.002-8.076 19.384-5.244 5.243-11.64 7.874-19.163 7.87z"/></svg>