<svg xmlns="http://www.w3.org/2000/svg" width="433.382" height="592.649" viewBox="0 0 433.382 592.649"><path fill="currentColor" d="M0 350.788c7.986-78.999 69.757-135.305 152.862-141.67C208.978 111.92 301.392 31.502 407.059.537c7.418-1.987 13.69 1.634 15.677 9.052 26.018 106.992 2.58 227.235-51.063 323.768 32.904 73.343 18.162 156.802-46.26 203.217 3.75-35.459-3.715-73.213-23.545-107.654-10.376 10.731-20.752 21.462-31.79 29.72-4.284 3.799-9.23 5.124-15.5 1.504l-156.767-90.51c-3.136-1.81-4.46-6.756-3.313-12.364 1.633-13.689 5.738-28.04 10.506-39.92-39.742.048-76.17 12.46-105.004 33.437zm267.367-90.193c25.082 14.482 54.756 6.53 69.237-18.552 14.482-25.083 6.53-54.756-18.552-69.238-25.083-14.481-54.756-6.53-69.237 18.553-14.482 25.082-6.531 54.756 18.552 69.237zM27.698 483.833l38.014-65.843c7.241-12.541 22.078-16.517 34.62-9.276 12.54 7.241 16.516 22.078 9.275 34.619l-38.014 65.842c-7.24 12.542-22.077 16.517-34.619 9.276-12.541-7.24-16.517-22.077-9.276-34.618zm122.279 70.597l38.014-65.842c7.24-12.542 22.077-16.517 34.619-9.276 12.541 7.24 16.516 22.077 9.276 34.619l-38.014 65.842c-7.241 12.541-22.078 16.517-34.62 9.276-12.54-7.24-16.516-22.078-9.275-34.619zm-74.053-9.31l52.495-90.926c7.241-12.541 22.078-16.517 34.619-9.276 12.541 7.24 16.517 22.077 9.276 34.619l-52.495 90.925c-7.241 12.541-22.078 16.517-34.62 9.276-12.54-7.24-16.516-22.077-9.275-34.619z"/></svg>