<svg width="40" height="40" viewBox="0 0 40 40" xmlns="http://www.w3.org/2000/svg"><path d="M14 3h2v1h-2zm2 0h2v1h-2zm2 0h2v1h-2zm2 0h2v1h-2zm2 0h2v1h-2zm2 0h1v1h-1zM12 4h2v1h-2z"/><path fill="#fff691" d="M14 4h2v1h-2zm2 0h2v1h-2zm2 0h2v1h-2zm2 0h2v1h-2zm2 0h2v1h-2zm2 0h1v1h-1z"/><path d="M25 4h2v1h-2zM4 5h2v1H4zm2 0h1v1H6zm4 0h2v1h-2z"/><path fill="#fff691" d="M12 5h1v1h-1z"/><path fill="#c2bc7a" d="M13 5h2v1h-2zm2 0h1v1h-1z"/><path fill="#fff691" d="M16 5h2v1h-2z"/><path fill="#c2bc7a" d="M18 5h2v1h-2zm2 0h1v1h-1z"/><path fill="#fff691" d="M21 5h2v1h-2z"/><path fill="#c2bc7a" d="M23 5h2v1h-2zm2 0h1v1h-1z"/><path fill="#fff691" d="M26 5h1v1h-1z"/><path d="M27 5h2v1h-2zm5 0h2v1h-2zm2 0h1v1h-1zM3 6h1v1H3z"/><path fill="#ff7aff" d="M4 6h1v1H4z"/><path fill="#b300b3" d="M5 6h1v1H5z"/><path fill="#ff7aff" d="M6 6h1v1H6z"/><path d="M7 6h2v1H7zm2 0h1v1H9z"/><path fill="#fff691" d="M10 6h2v1h-2z"/><path fill="#c2bc7a" d="M12 6h1v1h-1z"/><path d="M13 6h2v1h-2zm2 0h1v1h-1z"/><path fill="#c2bc7a" d="M16 6h2v1h-2z"/><path d="M18 6h2v1h-2zm2 0h1v1h-1z"/><path fill="#c2bc7a" d="M21 6h2v1h-2z"/><path d="M23 6h2v1h-2zm2 0h1v1h-1z"/><path fill="#c2bc7a" d="M26 6h1v1h-1z"/><path fill="#fff691" d="M27 6h2v1h-2z"/><path d="M29 6h2v1h-2zm2 0h1v1h-1z"/><path fill="#ff7aff" d="M32 6h1v1h-1z"/><path fill="#b300b3" d="M33 6h1v1h-1z"/><path fill="#ff7aff" d="M34 6h1v1h-1z"/><path d="M35 6h1v1h-1zM2 7h1v1H2z"/><path fill="#730073" d="M3 7h1v1H3z"/><path fill="#ff7aff" d="M4 7h1v1H4z"/><path fill="#b300b3" d="M5 7h1v1H5z"/><path fill="#ff7aff" d="M6 7h2v1H6z"/><path fill="#b300b3" d="M8 7h1v1H8z"/><path d="M9 7h1v1H9z"/><path fill="#fff691" d="M10 7h1v1h-1z"/><path fill="#c2bc7a" d="M11 7h1v1h-1z"/><path d="M12 7h1v1h-1z"/><path fill="#ffa875" d="M13 7h2v1h-2zm2 0h1v1h-1z"/><path d="M16 7h2v1h-2z"/><path fill="#ffa875" d="M18 7h2v1h-2zm2 0h1v1h-1z"/><path d="M21 7h2v1h-2z"/><path fill="#ffa875" d="M23 7h2v1h-2zm2 0h1v1h-1z"/><path d="M26 7h1v1h-1z"/><path fill="#c2bc7a" d="M27 7h2v1h-2z"/><path d="M29 7h1v1h-1z"/><path fill="#b300b3" d="M30 7h1v1h-1z"/><path fill="#ff7aff" d="M31 7h2v1h-2z"/><path fill="#b300b3" d="M33 7h1v1h-1z"/><path fill="#ff7aff" d="M34 7h1v1h-1z"/><path fill="#730073" d="M35 7h1v1h-1z"/><path d="M36 7h1v1h-1zM1 8h1v1H1z"/><path fill="#ff7aff" d="M2 8h2v1H2z"/><path d="M4 8h2v1H4z"/><path fill="#ff7aff" d="M6 8h1v1H6z"/><path fill="#b300b3" d="M7 8h1v1H7z"/><path fill="#ff7aff" d="M8 8h1v1H8z"/><path d="M9 8h2v1H9zm2 0h1v1h-1z"/><path fill="#ffc4a1" d="M12 8h2v1h-2zm2 0h1v1h-1z"/><path fill="#ffa875" d="M15 8h2v1h-2zm2 0h1v1h-1z"/><path fill="#ffc4a1" d="M18 8h2v1h-2zm2 0h1v1h-1z"/><path fill="#ffa875" d="M21 8h2v1h-2zm2 0h1v1h-1z"/><path fill="#ffc4a1" d="M24 8h1v1h-1z"/><path fill="#ffa875" d="M25 8h2v1h-2z"/><path d="M27 8h2v1h-2z"/><path fill="#ff7aff" d="M29 8h2v1h-2z"/><path fill="#b300b3" d="M31 8h1v1h-1z"/><path fill="#ff7aff" d="M32 8h1v1h-1z"/><path d="M33 8h2v1h-2z"/><path fill="#ff7aff" d="M35 8h2v1h-2z"/><path d="M37 8h1v1h-1zM1 9h1v1H1z"/><path fill="#b300b3" d="M2 9h1v1H2z"/><path d="M3 9h1v1H3z"/><path fill="#730073" d="M4 9h2v1H4z"/><path d="M6 9h1v1H6z"/><path fill="#ff7aff" d="M7 9h2v1H7zm2 0h1v1H9z"/><path d="M10 9h1v1h-1z"/><path fill="#ffc4a1" d="M11 9h2v1h-2zm2 0h2v1h-2zm2 0h2v1h-2zm2 0h2v1h-2zm2 0h2v1h-2zm2 0h2v1h-2zm2 0h2v1h-2zm2 0h1v1h-1z"/><path fill="#ffa875" d="M26 9h2v1h-2z"/><path d="M28 9h1v1h-1z"/><path fill="#b300b3" d="M29 9h1v1h-1z"/><path fill="#ff7aff" d="M30 9h2v1h-2z"/><path d="M32 9h1v1h-1z"/><path fill="#730073" d="M33 9h2v1h-2z"/><path d="M35 9h1v1h-1z"/><path fill="#b300b3" d="M36 9h1v1h-1z"/><path d="M37 9h1v1h-1zM0 10h1v1H0z"/><path fill="#ff7aff" d="M1 10h1v1H1z"/><path d="M2 10h1v1H2z"/><path fill="#730073" d="M3 10h1v1H3z"/><path d="M4 10h2v1H4zm2 0h2v1H6zm2 0h2v1H8zm2 0h1v1h-1z"/><path fill="#ffc4a1" d="M11 10h2v1h-2zm2 0h2v1h-2zm2 0h2v1h-2zm2 0h2v1h-2zm2 0h2v1h-2zm2 0h2v1h-2zm2 0h2v1h-2zm2 0h2v1h-2z"/><path fill="#ffa875" d="M27 10h1v1h-1z"/><path d="M28 10h2v1h-2zm2 0h2v1h-2zm2 0h2v1h-2zm2 0h1v1h-1z"/><path fill="#730073" d="M35 10h1v1h-1z"/><path d="M36 10h1v1h-1z"/><path fill="#ff7aff" d="M37 10h1v1h-1z"/><path d="M38 10h1v1h-1zM0 11h2v1H0z"/><path fill="#b300b3" d="M2 11h2v1H2z"/><path d="M4 11h1v1H4z"/><path fill="#ffc4a1" d="M5 11h2v1H5zm2 0h2v1H7zm2 0h2v1H9zm2 0h2v1h-2zm2 0h2v1h-2zm2 0h2v1h-2zm2 0h2v1h-2zm2 0h2v1h-2zm2 0h2v1h-2zm2 0h2v1h-2zm2 0h2v1h-2zm2 0h2v1h-2zm2 0h2v1h-2zm2 0h2v1h-2zm2 0h1v1h-1z"/><path d="M34 11h1v1h-1z"/><path fill="#b300b3" d="M35 11h2v1h-2z"/><path d="M37 11h2v1h-2zM0 12h1v1H0z"/><path fill="#730073" d="M1 12h2v1H1zm2 0h1v1H3z"/><path d="M4 12h1v1H4z"/><path fill="#ffc4a1" d="M5 12h2v1H5z"/><path d="M7 12h2v1H7z"/><path fill="#ffc4a1" d="M9 12h2v1H9zm2 0h2v1h-2z"/><path d="M13 12h2v1h-2zm2 0h2v1h-2z"/><path fill="#ffc4a1" d="M17 12h2v1h-2zm2 0h2v1h-2zm2 0h1v1h-1z"/><path d="M22 12h2v1h-2zm2 0h2v1h-2z"/><path fill="#ffc4a1" d="M26 12h2v1h-2zm2 0h2v1h-2z"/><path d="M30 12h2v1h-2z"/><path fill="#ffa875" d="M32 12h2v1h-2z"/><path d="M34 12h1v1h-1z"/><path fill="#730073" d="M35 12h2v1h-2zm2 0h1v1h-1z"/><path d="M38 12h1v1h-1zM0 13h1v1H0z"/><path fill="#730073" d="M1 13h1v1H1z"/><path fill="#b300b3" d="M2 13h2v1H2z"/><path fill="#730073" d="M4 13h1v1H4z"/><path d="M5 13h1v1H5z"/><path fill="#ffc4a1" d="M6 13h1v1H6z"/><path fill="#ff904f" d="M7 13h2v1H7z"/><path d="M9 13h1v1H9z"/><path fill="#ffc4a1" d="M10 13h2v1h-2z"/><path d="M12 13h1v1h-1z"/><path fill="#fff" d="M13 13h2v1h-2zm2 0h2v1h-2z"/><path d="M17 13h1v1h-1z"/><path fill="#ffc4a1" d="M18 13h2v1h-2zm2 0h1v1h-1z"/><path d="M21 13h1v1h-1z"/><path fill="#fff" d="M22 13h2v1h-2zm2 0h2v1h-2z"/><path d="M26 13h1v1h-1z"/><path fill="#ffc4a1" d="M27 13h2v1h-2z"/><path d="M29 13h1v1h-1z"/><path fill="#ff904f" d="M30 13h2v1h-2z"/><path fill="#ffa875" d="M32 13h1v1h-1z"/><path d="M33 13h1v1h-1z"/><path fill="#730073" d="M34 13h1v1h-1z"/><path fill="#b300b3" d="M35 13h2v1h-2z"/><path fill="#730073" d="M37 13h1v1h-1z"/><path d="M38 13h1v1h-1zM0 14h1v1H0z"/><path fill="#b300b3" d="M1 14h2v1H1z"/><path d="M3 14h2v1H3zm2 0h2v1H5z"/><path fill="#ffc4a1" d="M7 14h2v1H7z"/><path fill="#ffa875" d="M9 14h1v1H9z"/><path fill="#ffc4a1" d="M10 14h1v1h-1z"/><path d="M11 14h1v1h-1z"/><path fill="#fff" d="M12 14h2v1h-2z"/><path d="M14 14h2v1h-2z"/><path fill="#fff" d="M16 14h2v1h-2z"/><path d="M18 14h1v1h-1z"/><path fill="#ffc4a1" d="M19 14h1v1h-1z"/><path d="M20 14h1v1h-1z"/><path fill="#fff" d="M21 14h2v1h-2z"/><path d="M23 14h2v1h-2z"/><path fill="#fff" d="M25 14h2v1h-2z"/><path d="M27 14h1v1h-1z"/><path fill="#ffa875" d="M28 14h2v1h-2zm2 0h2v1h-2z"/><path d="M32 14h2v1h-2zm2 0h2v1h-2z"/><path fill="#b300b3" d="M36 14h2v1h-2z"/><path d="M38 14h1v1h-1zM0 15h1v1H0z"/><path fill="#b300b3" d="M1 15h1v1H1z"/><path fill="#730073" d="M2 15h1v1H2z"/><path d="M3 15h1v1H3z"/><path fill="#b300b3" d="M4 15h2v1H4z"/><path d="M6 15h2v1H6zm2 0h1v1H8z"/><path fill="#ffc4a1" d="M9 15h2v1H9z"/><path d="M11 15h1v1h-1z"/><path fill="#fff" d="M12 15h1v1h-1z"/><path d="M13 15h2v1h-2z"/><path fill="#fff" d="M15 15h1v1h-1z"/><path d="M16 15h1v1h-1z"/><path fill="#fff" d="M17 15h1v1h-1z"/><path d="M18 15h1v1h-1z"/><path fill="#ffc4a1" d="M19 15h1v1h-1z"/><path d="M20 15h1v1h-1z"/><path fill="#fff" d="M21 15h1v1h-1z"/><path d="M22 15h1v1h-1z"/><path fill="#fff" d="M23 15h1v1h-1z"/><path d="M24 15h2v1h-2z"/><path fill="#fff" d="M26 15h1v1h-1z"/><path d="M27 15h1v1h-1z"/><path fill="#ffa875" d="M28 15h2v1h-2z"/><path d="M30 15h2v1h-2zm2 0h1v1h-1z"/><path fill="#b300b3" d="M33 15h2v1h-2z"/><path d="M35 15h1v1h-1z"/><path fill="#730073" d="M36 15h1v1h-1z"/><path fill="#b300b3" d="M37 15h1v1h-1z"/><path d="M38 15h1v1h-1zM1 16h1v1H1z"/><path fill="#b300b3" d="M2 16h2v1H2z"/><path d="M4 16h1v1H4z"/><path fill="#730073" d="M5 16h1v1H5z"/><path fill="#b300b3" d="M6 16h1v1H6z"/><path d="M7 16h1v1H7z"/><path fill="#c2bc7a" d="M8 16h1v1H8z"/><path d="M9 16h1v1H9z"/><path fill="#ffc4a1" d="M10 16h1v1h-1z"/><path d="M11 16h1v1h-1z"/><path fill="#fff" d="M12 16h1v1h-1z"/><path d="M13 16h2v1h-2zm2 0h2v1h-2z"/><path fill="#fff" d="M17 16h1v1h-1z"/><path d="M18 16h1v1h-1z"/><path fill="#ffc4a1" d="M19 16h1v1h-1z"/><path d="M20 16h1v1h-1z"/><path fill="#fff" d="M21 16h1v1h-1z"/><path d="M22 16h2v1h-2zm2 0h2v1h-2z"/><path fill="#fff" d="M26 16h1v1h-1z"/><path d="M27 16h1v1h-1z"/><path fill="#ffa875" d="M28 16h1v1h-1z"/><path d="M29 16h1v1h-1z"/><path fill="#c2bc7a" d="M30 16h1v1h-1z"/><path d="M31 16h1v1h-1z"/><path fill="#b300b3" d="M32 16h1v1h-1z"/><path fill="#730073" d="M33 16h1v1h-1z"/><path d="M34 16h1v1h-1z"/><path fill="#b300b3" d="M35 16h2v1h-2z"/><path d="M37 16h1v1h-1zM1 17h1v1H1z"/><path fill="#b300b3" d="M2 17h1v1H2z"/><path fill="#730073" d="M3 17h1v1H3z"/><path d="M4 17h1v1H4z"/><path fill="#730073" d="M5 17h1v1H5z"/><path fill="#b300b3" d="M6 17h1v1H6z"/><path d="M7 17h1v1H7z"/><path fill="#fff691" d="M8 17h1v1H8z"/><path d="M9 17h1v1H9z"/><path fill="#ffc4a1" d="M10 17h1v1h-1z"/><path d="M11 17h1v1h-1z"/><path fill="#ccc" d="M12 17h1v1h-1z"/><path fill="#fff" d="M13 17h1v1h-1z"/><path d="M14 17h2v1h-2z"/><path fill="#fff" d="M16 17h1v1h-1z"/><path fill="#ccc" d="M17 17h1v1h-1z"/><path d="M18 17h1v1h-1z"/><path fill="#ffc4a1" d="M19 17h1v1h-1z"/><path d="M20 17h1v1h-1z"/><path fill="#ccc" d="M21 17h1v1h-1z"/><path fill="#fff" d="M22 17h1v1h-1z"/><path d="M23 17h2v1h-2z"/><path fill="#fff" d="M25 17h1v1h-1z"/><path fill="#ccc" d="M26 17h1v1h-1z"/><path d="M27 17h1v1h-1z"/><path fill="#ffa875" d="M28 17h1v1h-1z"/><path d="M29 17h1v1h-1z"/><path fill="#c2bc7a" d="M30 17h1v1h-1z"/><path d="M31 17h1v1h-1z"/><path fill="#b300b3" d="M32 17h1v1h-1z"/><path fill="#730073" d="M33 17h1v1h-1z"/><path d="M34 17h1v1h-1z"/><path fill="#730073" d="M35 17h1v1h-1z"/><path fill="#b300b3" d="M36 17h1v1h-1z"/><path d="M37 17h1v1h-1zM1 18h1v1H1z"/><path fill="#730073" d="M2 18h2v1H2zm2 0h1v1H4z"/><path fill="#b300b3" d="M5 18h2v1H5z"/><path d="M7 18h1v1H7z"/><path fill="#fff691" d="M8 18h1v1H8z"/><path d="M9 18h1v1H9z"/><path fill="#ffc4a1" d="M10 18h2v1h-2z"/><path d="M12 18h1v1h-1z"/><path fill="#ccc" d="M13 18h2v1h-2zm2 0h2v1h-2z"/><path d="M17 18h1v1h-1z"/><path fill="#ffc4a1" d="M18 18h2v1h-2zm2 0h1v1h-1z"/><path d="M21 18h1v1h-1z"/><path fill="#ccc" d="M22 18h2v1h-2zm2 0h2v1h-2z"/><path d="M26 18h1v1h-1z"/><path fill="#ffa875" d="M27 18h2v1h-2z"/><path d="M29 18h1v1h-1z"/><path fill="#c2bc7a" d="M30 18h1v1h-1z"/><path d="M31 18h1v1h-1z"/><path fill="#b300b3" d="M32 18h2v1h-2z"/><path fill="#730073" d="M34 18h2v1h-2zm2 0h1v1h-1z"/><path d="M37 18h1v1h-1zM2 19h1v1H2z"/><path fill="#b300b3" d="M3 19h2v1H3zm2 0h1v1H5z"/><path d="M6 19h1v1H6z"/><path fill="#c2bc7a" d="M7 19h1v1H7z"/><path fill="#fff691" d="M8 19h1v1H8z"/><path d="M9 19h1v1H9z"/><path fill="#ffc4a1" d="M10 19h2v1h-2zm2 0h1v1h-1z"/><path d="M13 19h2v1h-2zm2 0h2v1h-2z"/><path fill="#ffc4a1" d="M17 19h1v1h-1z"/><path fill="#ffdcc7" d="M18 19h2v1h-2zm2 0h1v1h-1z"/><path fill="#ffc4a1" d="M21 19h1v1h-1z"/><path d="M22 19h2v1h-2zm2 0h2v1h-2z"/><path fill="#ffc4a1" d="M26 19h1v1h-1z"/><path fill="#ffa875" d="M27 19h1v1h-1z"/><path fill="#ff904f" d="M28 19h1v1h-1z"/><path d="M29 19h1v1h-1z"/><path fill="#c2bc7a" d="M30 19h2v1h-2z"/><path d="M32 19h1v1h-1z"/><path fill="#b300b3" d="M33 19h2v1h-2zm2 0h1v1h-1z"/><path d="M36 19h1v1h-1zM3 20h2v1H3zm2 0h1v1H5z"/><path fill="#c2bc7a" d="M6 20h1v1H6z"/><path fill="#fff691" d="M7 20h2v1H7zm2 0h1v1H9z"/><path d="M10 20h1v1h-1z"/><path fill="#ffc4a1" d="M11 20h2v1h-2zm2 0h2v1h-2zm2 0h2v1h-2z"/><path fill="#ffdcc7" d="M17 20h2v1h-2zm2 0h2v1h-2zm2 0h1v1h-1z"/><path fill="#ffc4a1" d="M22 20h2v1h-2zm2 0h2v1h-2zm2 0h1v1h-1z"/><path fill="#ffa875" d="M27 20h1v1h-1z"/><path d="M28 20h1v1h-1z"/><path fill="#fff691" d="M29 20h2v1h-2z"/><path fill="#c2bc7a" d="M31 20h2v1h-2z"/><path d="M33 20h2v1h-2zm2 0h1v1h-1zM5 21h1v1H5z"/><path fill="#fff691" d="M6 21h2v1H6zm2 0h2v1H8z"/><path d="M10 21h1v1h-1z"/><path fill="#ffc4a1" d="M11 21h2v1h-2zm2 0h2v1h-2zm2 0h1v1h-1z"/><path fill="#ffdcc7" d="M16 21h2v1h-2z"/><path fill="#ffc4a1" d="M18 21h2v1h-2zm2 0h1v1h-1z"/><path fill="#ffdcc7" d="M21 21h2v1h-2z"/><path fill="#ffc4a1" d="M23 21h2v1h-2zm2 0h1v1h-1z"/><path fill="#ffa875" d="M26 21h2v1h-2z"/><path d="M28 21h1v1h-1z"/><path fill="#fff691" d="M29 21h2v1h-2zm2 0h1v1h-1z"/><path fill="#c2bc7a" d="M32 21h1v1h-1z"/><path d="M33 21h1v1h-1zM5 22h1v1H5z"/><path fill="#fff691" d="M6 22h2v1H6zm2 0h2v1H8z"/><path d="M10 22h1v1h-1z"/><path fill="#ffa875" d="M11 22h1v1h-1z"/><path fill="#ffc4a1" d="M12 22h2v1h-2zm2 0h2v1h-2zm2 0h2v1h-2zm2 0h2v1h-2zm2 0h2v1h-2zm2 0h2v1h-2zm2 0h1v1h-1z"/><path fill="#ffa875" d="M25 22h2v1h-2zm2 0h1v1h-1z"/><path d="M28 22h1v1h-1z"/><path fill="#fff691" d="M29 22h2v1h-2zm2 0h1v1h-1z"/><path fill="#c2bc7a" d="M32 22h1v1h-1z"/><path d="M33 22h1v1h-1zM5 23h1v1H5z"/><path fill="#fff691" d="M6 23h2v1H6zm2 0h2v1H8z"/><path d="M10 23h1v1h-1z"/><path fill="#ffa875" d="M11 23h1v1h-1z"/><path fill="#ffc4a1" d="M12 23h2v1h-2zm2 0h2v1h-2zm2 0h2v1h-2zm2 0h2v1h-2zm2 0h2v1h-2zm2 0h2v1h-2zm2 0h1v1h-1z"/><path fill="#ffa875" d="M25 23h2v1h-2z"/><path fill="#ff904f" d="M27 23h1v1h-1z"/><path d="M28 23h1v1h-1z"/><path fill="#fff691" d="M29 23h1v1h-1z"/><path fill="#c2bc7a" d="M30 23h1v1h-1z"/><path fill="#fff691" d="M31 23h1v1h-1z"/><path fill="#c2bc7a" d="M32 23h1v1h-1z"/><path d="M33 23h1v1h-1zM5 24h1v1H5z"/><path fill="#fff691" d="M6 24h2v1H6zm2 0h2v1H8z"/><path d="M10 24h1v1h-1z"/><path fill="#ffa875" d="M11 24h2v1h-2z"/><path fill="#ffc4a1" d="M13 24h2v1h-2zm2 0h2v1h-2zm2 0h2v1h-2zm2 0h2v1h-2zm2 0h2v1h-2zm2 0h1v1h-1z"/><path fill="#ffa875" d="M24 24h2v1h-2zm2 0h1v1h-1z"/><path fill="#ff904f" d="M27 24h1v1h-1z"/><path d="M28 24h1v1h-1z"/><path fill="#c2bc7a" d="M29 24h2v1h-2z"/><path fill="#fff691" d="M31 24h1v1h-1z"/><path fill="#c2bc7a" d="M32 24h1v1h-1z"/><path d="M33 24h1v1h-1zM6 25h1v1H6z"/><path fill="#fff691" d="M7 25h2v1H7z"/><path fill="#c2bc7a" d="M9 25h2v1H9z"/><path d="M11 25h1v1h-1z"/><path fill="#ffa875" d="M12 25h2v1h-2z"/><path fill="#ffc4a1" d="M14 25h2v1h-2zm2 0h2v1h-2zm2 0h2v1h-2zm2 0h2v1h-2z"/><path fill="#ffa875" d="M22 25h2v1h-2zm2 0h2v1h-2z"/><path fill="#ff904f" d="M26 25h1v1h-1z"/><path d="M27 25h1v1h-1z"/><path fill="#fff691" d="M28 25h1v1h-1z"/><path fill="#c2bc7a" d="M29 25h1v1h-1z"/><path fill="#fff691" d="M30 25h1v1h-1z"/><path fill="#c2bc7a" d="M31 25h1v1h-1z"/><path d="M32 25h1v1h-1zM6 26h1v1H6z"/><path fill="#fff691" d="M7 26h2v1H7z"/><path fill="#c2bc7a" d="M9 26h2v1H9z"/><path d="M11 26h1v1h-1z"/><path fill="#ffa875" d="M12 26h2v1h-2zm2 0h1v1h-1z"/><path fill="#ffc4a1" d="M15 26h2v1h-2zm2 0h2v1h-2zm2 0h1v1h-1z"/><path fill="#ffa875" d="M20 26h2v1h-2zm2 0h2v1h-2zm2 0h1v1h-1z"/><path fill="#ff904f" d="M25 26h2v1h-2z"/><path d="M27 26h1v1h-1z"/><path fill="#c2bc7a" d="M28 26h2v1h-2zm2 0h2v1h-2z"/><path d="M32 26h1v1h-1zM6 27h1v1H6z"/><path fill="#fff691" d="M7 27h2v1H7zm2 0h1v1H9z"/><path fill="#c2bc7a" d="M10 27h2v1h-2z"/><path d="M12 27h1v1h-1z"/><path fill="#ffa875" d="M13 27h2v1h-2zm2 0h2v1h-2zm2 0h2v1h-2zm2 0h2v1h-2zm2 0h2v1h-2zm2 0h1v1h-1z"/><path fill="#ff904f" d="M24 27h2v1h-2z"/><path d="M26 27h1v1h-1z"/><path fill="#c2bc7a" d="M27 27h2v1h-2zm2 0h1v1h-1z"/><path fill="#a39e67" d="M30 27h2v1h-2z"/><path d="M32 27h1v1h-1zM6 28h1v1H6z"/><path fill="#fff691" d="M7 28h2v1H7zm2 0h2v1H9z"/><path fill="#c2bc7a" d="M11 28h1v1h-1z"/><path d="M12 28h1v1h-1z"/><path fill="#ff904f" d="M13 28h1v1h-1z"/><path fill="#ffa875" d="M14 28h2v1h-2zm2 0h2v1h-2zm2 0h2v1h-2zm2 0h2v1h-2zm2 0h1v1h-1z"/><path fill="#ff904f" d="M23 28h2v1h-2zm2 0h1v1h-1z"/><path d="M26 28h1v1h-1z"/><path fill="#c2bc7a" d="M27 28h2v1h-2zm2 0h1v1h-1z"/><path fill="#a39e67" d="M30 28h1v1h-1z"/><path d="M31 28h1v1h-1zM6 29h1v1H6z"/><path fill="#fff691" d="M7 29h1v1H7z"/><path fill="#c2bc7a" d="M8 29h2v1H8z"/><path fill="#fff691" d="M10 29h2v1h-2z"/><path fill="#c2bc7a" d="M12 29h1v1h-1z"/><path d="M13 29h1v1h-1z"/><path fill="#ff904f" d="M14 29h2v1h-2zm2 0h2v1h-2zm2 0h2v1h-2zm2 0h2v1h-2zm2 0h2v1h-2zm2 0h1v1h-1z"/><path d="M25 29h1v1h-1z"/><path fill="#c2bc7a" d="M26 29h2v1h-2zm2 0h2v1h-2z"/><path fill="#a39e67" d="M30 29h1v1h-1z"/><path d="M31 29h1v1h-1zM6 30h1v1H6z"/><path fill="#fff691" d="M7 30h1v1H7z"/><path fill="#c2bc7a" d="M8 30h2v1H8zm2 0h1v1h-1z"/><path fill="#fff691" d="M11 30h1v1h-1z"/><path fill="#c2bc7a" d="M12 30h2v1h-2z"/><path d="M14 30h2v1h-2z"/><path fill="#ff904f" d="M16 30h2v1h-2zm2 0h2v1h-2zm2 0h2v1h-2zm2 0h1v1h-1z"/><path d="M23 30h2v1h-2z"/><path fill="#c2bc7a" d="M25 30h2v1h-2zm2 0h2v1h-2z"/><path fill="#a39e67" d="M29 30h1v1h-1z"/><path d="M30 30h1v1h-1zM5 31h1v1H5z"/><path fill="#fff691" d="M6 31h2v1H6zm2 0h1v1H8z"/><path fill="#c2bc7a" d="M9 31h2v1H9zm2 0h2v1h-2z"/><path fill="#a39e67" d="M13 31h1v1h-1z"/><path fill="#c2bc7a" d="M14 31h2v1h-2z"/><path d="M16 31h2v1h-2zm2 0h2v1h-2zm2 0h2v1h-2zm2 0h1v1h-1z"/><path fill="#a39e67" d="M23 31h1v1h-1z"/><path fill="#c2bc7a" d="M24 31h2v1h-2zm2 0h2v1h-2z"/><path fill="#a39e67" d="M28 31h2v1h-2zm2 0h1v1h-1z"/><path d="M31 31h1v1h-1zM5 32h1v1H5z"/><path fill="#fff691" d="M6 32h2v1H6z"/><path fill="#c2bc7a" d="M8 32h1v1H8z"/><path fill="#a39e67" d="M9 32h2v1H9z"/><path fill="#c2bc7a" d="M11 32h2v1h-2z"/><path fill="#a39e67" d="M13 32h2v1h-2zm2 0h2v1h-2zm2 0h2v1h-2zm2 0h2v1h-2zm2 0h2v1h-2zm2 0h2v1h-2zm2 0h2v1h-2zm2 0h2v1h-2zm2 0h2v1h-2zm2 0h1v1h-1z"/><path d="M32 32h1v1h-1zM5 33h1v1H5z"/><path fill="#fff691" d="M6 33h1v1H6z"/><path fill="#c2bc7a" d="M7 33h1v1H7z"/><path fill="#a39e67" d="M8 33h2v1H8z"/><path d="M10 33h1v1h-1z"/><path fill="#a39e67" d="M11 33h2v1h-2zm2 0h1v1h-1z"/><path d="M14 33h2v1h-2zm2 0h1v1h-1z"/><path fill="#a39e67" d="M17 33h2v1h-2zm2 0h2v1h-2zm2 0h1v1h-1z"/><path d="M22 33h2v1h-2zm2 0h1v1h-1z"/><path fill="#a39e67" d="M25 33h2v1h-2zm2 0h1v1h-1z"/><path d="M28 33h1v1h-1z"/><path fill="#a39e67" d="M29 33h2v1h-2zm2 0h1v1h-1z"/><path d="M32 33h1v1h-1zM5 34h1v1H5z"/><path fill="#fff691" d="M6 34h1v1H6z"/><path fill="#c2bc7a" d="M7 34h1v1H7z"/><path fill="#a39e67" d="M8 34h2v1H8zm2 0h1v1h-1z"/><path d="M11 34h2v1h-2zm2 0h1v1h-1z"/><path fill="#ff904f" d="M14 34h1v1h-1z"/><path d="M15 34h1v1h-1z"/><path fill="#a39e67" d="M16 34h2v1h-2zm2 0h2v1h-2zm2 0h2v1h-2zm2 0h1v1h-1z"/><path d="M23 34h1v1h-1z"/><path fill="#ffc4a1" d="M24 34h1v1h-1z"/><path d="M25 34h2v1h-2zm2 0h1v1h-1z"/><path fill="#a39e67" d="M28 34h2v1h-2zm2 0h2v1h-2z"/><path d="M32 34h1v1h-1zM3 35h2v1H3zm2 0h1v1H5z"/><path fill="#fff691" d="M6 35h1v1H6z"/><path fill="#c2bc7a" d="M7 35h2v1H7z"/><path fill="#a39e67" d="M9 35h2v1H9z"/><path d="M11 35h1v1h-1z"/><path fill="#ffc4a1" d="M12 35h1v1h-1z"/><path fill="#ffa875" d="M13 35h1v1h-1z"/><path fill="#ff904f" d="M14 35h1v1h-1z"/><path d="M15 35h1v1h-1z"/><path fill="#a39e67" d="M16 35h2v1h-2zm2 0h2v1h-2zm2 0h2v1h-2zm2 0h1v1h-1z"/><path d="M23 35h1v1h-1z"/><path fill="#ffc4a1" d="M24 35h1v1h-1z"/><path fill="#ffa875" d="M25 35h1v1h-1z"/><path fill="#ff904f" d="M26 35h1v1h-1z"/><path d="M27 35h1v1h-1z"/><path fill="#a39e67" d="M28 35h2v1h-2zm2 0h2v1h-2z"/><path d="M32 35h2v1h-2zm2 0h1v1h-1zM2 36h1v1H2z"/><path fill="#ffa875" d="M3 36h2v1H3zm2 0h1v1H5z"/><path d="M6 36h1v1H6z"/><path fill="#c2bc7a" d="M7 36h2v1H7z"/><path fill="#a39e67" d="M9 36h2v1H9z"/><path d="M11 36h1v1h-1z"/><path fill="#ffc4a1" d="M12 36h1v1h-1z"/><path fill="#ffa875" d="M13 36h1v1h-1z"/><path fill="#ff904f" d="M14 36h1v1h-1z"/><path d="M15 36h1v1h-1z"/><path fill="#a39e67" d="M16 36h2v1h-2zm2 0h2v1h-2zm2 0h2v1h-2zm2 0h1v1h-1z"/><path d="M23 36h1v1h-1z"/><path fill="#ffc4a1" d="M24 36h1v1h-1z"/><path fill="#ffa875" d="M25 36h1v1h-1z"/><path fill="#ff904f" d="M26 36h1v1h-1z"/><path d="M27 36h1v1h-1z"/><path fill="#a39e67" d="M28 36h2v1h-2zm2 0h1v1h-1z"/><path d="M31 36h1v1h-1z"/><path fill="#ffa875" d="M32 36h2v1h-2zm2 0h1v1h-1z"/><path d="M35 36h1v1h-1zM2 37h1v1H2z"/><path fill="#ff904f" d="M3 37h2v1H3zm2 0h2v1H5z"/><path d="M7 37h1v1H7z"/><path fill="#a39e67" d="M8 37h2v1H8zm2 0h1v1h-1z"/><path d="M11 37h1v1h-1z"/><path fill="#ffc4a1" d="M12 37h1v1h-1z"/><path fill="#ffa875" d="M13 37h1v1h-1z"/><path fill="#ff904f" d="M14 37h1v1h-1z"/><path d="M15 37h1v1h-1z"/><path fill="#a39e67" d="M16 37h2v1h-2zm2 0h2v1h-2zm2 0h2v1h-2zm2 0h1v1h-1z"/><path d="M23 37h1v1h-1z"/><path fill="#ffc4a1" d="M24 37h1v1h-1z"/><path fill="#ffa875" d="M25 37h1v1h-1z"/><path fill="#ff904f" d="M26 37h1v1h-1z"/><path d="M27 37h1v1h-1z"/><path fill="#a39e67" d="M28 37h2v1h-2z"/><path d="M30 37h1v1h-1z"/><path fill="#ff904f" d="M31 37h2v1h-2zm2 0h2v1h-2z"/><path d="M35 37h1v1h-1zM2 38h2v1H2zm2 0h2v1H4zm2 0h2v1H6zm2 0h2v1H8zm2 0h2v1h-2z"/><path fill="#ffc4a1" d="M12 38h1v1h-1z"/><path fill="#ffa875" d="M13 38h1v1h-1z"/><path fill="#ff904f" d="M14 38h1v1h-1z"/><path d="M15 38h2v1h-2zm2 0h2v1h-2zm2 0h2v1h-2zm2 0h2v1h-2zm2 0h1v1h-1z"/><path fill="#ffc4a1" d="M24 38h1v1h-1z"/><path fill="#ffa875" d="M25 38h1v1h-1z"/><path fill="#ff904f" d="M26 38h1v1h-1z"/><path d="M27 38h2v1h-2zm2 0h2v1h-2zm2 0h2v1h-2zm2 0h2v1h-2zm2 0h1v1h-1zm-24 1h2v1h-2zm2 0h2v1h-2zm2 0h1v1h-1zm8 0h2v1h-2zm2 0h2v1h-2zm2 0h1v1h-1z"/></svg>