<svg width="40" height="40" viewBox="0 0 40 40" xmlns="http://www.w3.org/2000/svg"><path d="M14 2h2v1h-2zm2 0h2v1h-2zm2 0h2v1h-2zm2 0h2v1h-2zm2 0h2v1h-2zm2 0h1v1h-1zM12 3h2v1h-2z"/><path fill="#fff" d="M14 3h2v1h-2z"/><path fill="#fffcd9" d="M16 3h2v1h-2zm2 0h2v1h-2zm2 0h2v1h-2zm2 0h2v1h-2zm2 0h1v1h-1z"/><path d="M25 3h2v1h-2zM8 4h2v1H8zm2 0h2v1h-2z"/><path fill="#fff" d="M12 4h2v1h-2z"/><path fill="#fffcd9" d="M14 4h2v1h-2zm2 0h1v1h-1z"/><path fill="#fff691" d="M17 4h2v1h-2zm2 0h2v1h-2zm2 0h2v1h-2zm2 0h1v1h-1z"/><path fill="#fffcd9" d="M24 4h2v1h-2zm2 0h1v1h-1z"/><path d="M27 4h1v1h-1zM6 5h2v1H6z"/><path fill="#fff" d="M8 5h2v1H8zm2 0h2v1h-2zm2 0h1v1h-1z"/><path fill="#fffcd9" d="M13 5h2v1h-2z"/><path fill="#fff691" d="M15 5h2v1h-2z"/><path d="M17 5h2v1h-2zm2 0h2v1h-2zm2 0h2v1h-2z"/><path fill="#fff691" d="M23 5h2v1h-2zm2 0h1v1h-1z"/><path fill="#fffcd9" d="M26 5h2v1h-2z"/><path d="M28 5h1v1h-1zM5 6h1v1H5z"/><path fill="#fff" d="M6 6h2v1H6zm2 0h2v1H8z"/><path fill="#fffcd9" d="M10 6h2v1h-2zm2 0h1v1h-1z"/><path fill="#fff691" d="M13 6h2v1h-2z"/><path d="M15 6h2v1h-2z"/><path fill="#ff7aff" d="M17 6h2v1h-2z"/><path fill="#730073" d="M19 6h1v1h-1z"/><path fill="#ff7aff" d="M20 6h2v1h-2zm2 0h1v1h-1z"/><path d="M23 6h2v1h-2z"/><path fill="#fff691" d="M25 6h2v1h-2z"/><path fill="#fffcd9" d="M27 6h2v1h-2z"/><path d="M29 6h1v1h-1zM4 7h1v1H4z"/><path fill="#fff" d="M5 7h2v1H5zm2 0h1v1H7z"/><path fill="#fffcd9" d="M8 7h2v1H8zm2 0h1v1h-1z"/><path fill="#fff691" d="M11 7h2v1h-2zm2 0h1v1h-1z"/><path d="M14 7h1v1h-1z"/><path fill="#ff7aff" d="M15 7h1v1h-1z"/><path fill="#730073" d="M16 7h1v1h-1z"/><path fill="#ff7aff" d="M17 7h2v1h-2z"/><path fill="#730073" d="M19 7h1v1h-1z"/><path fill="#ff7aff" d="M20 7h2v1h-2z"/><path fill="#730073" d="M22 7h1v1h-1z"/><path fill="#ff7aff" d="M23 7h2v1h-2z"/><path d="M25 7h1v1h-1z"/><path fill="#fff691" d="M26 7h2v1h-2z"/><path fill="#fffcd9" d="M28 7h2v1h-2z"/><path d="M30 7h1v1h-1zM3 8h1v1H3z"/><path fill="#fff" d="M4 8h2v1H4zm2 0h1v1H6z"/><path fill="#fffcd9" d="M7 8h2v1H7z"/><path fill="#fff691" d="M9 8h2v1H9zm2 0h2v1h-2zm2 0h1v1h-1z"/><path d="M14 8h1v1h-1z"/><path fill="#ff7aff" d="M15 8h2v1h-2z"/><path fill="#730073" d="M17 8h1v1h-1z"/><path fill="#ff7aff" d="M18 8h1v1h-1z"/><path fill="#b300b3" d="M19 8h2v1h-2z"/><path fill="#ff7aff" d="M21 8h1v1h-1z"/><path fill="#b300b3" d="M22 8h1v1h-1z"/><path fill="#ff7aff" d="M23 8h1v1h-1z"/><path fill="#b300b3" d="M24 8h1v1h-1z"/><path fill="#ff7aff" d="M25 8h1v1h-1z"/><path d="M26 8h1v1h-1z"/><path fill="#fff691" d="M27 8h1v1h-1z"/><path fill="#fffcd9" d="M28 8h1v1h-1z"/><path d="M29 8h2v1h-2zM3 9h1v1H3z"/><path fill="#fff" d="M4 9h2v1H4z"/><path fill="#fffcd9" d="M6 9h2v1H6z"/><path fill="#fff691" d="M8 9h2v1H8zm2 0h2v1h-2zm2 0h1v1h-1z"/><path d="M13 9h1v1h-1z"/><path fill="#730073" d="M14 9h1v1h-1z"/><path fill="#b300b3" d="M15 9h1v1h-1z"/><path fill="#ff7aff" d="M16 9h2v1h-2z"/><path d="M18 9h2v1h-2zm2 0h2v1h-2zm2 0h1v1h-1z"/><path fill="#ff7aff" d="M23 9h1v1h-1z"/><path fill="#730073" d="M24 9h1v1h-1z"/><path fill="#b300b3" d="M25 9h1v1h-1z"/><path d="M26 9h2v1h-2zm2 0h1v1h-1z"/><path fill="#ffdcc7" d="M29 9h2v1h-2z"/><path d="M31 9h1v1h-1zM3 10h1v1H3z"/><path fill="#fff" d="M4 10h1v1H4z"/><path fill="#fffcd9" d="M5 10h2v1H5zm2 0h1v1H7z"/><path fill="#fff691" d="M8 10h2v1H8zm2 0h2v1h-2zm2 0h1v1h-1z"/><path d="M13 10h1v1h-1z"/><path fill="#ff7aff" d="M14 10h1v1h-1z"/><path fill="#730073" d="M15 10h1v1h-1z"/><path fill="#b300b3" d="M16 10h1v1h-1z"/><path d="M17 10h1v1h-1z"/><path fill="#b300b3" d="M18 10h1v1h-1z"/><path fill="#730073" d="M19 10h2v1h-2z"/><path fill="#b300b3" d="M21 10h1v1h-1z"/><path fill="#730073" d="M22 10h1v1h-1z"/><path d="M23 10h1v1h-1z"/><path fill="#730073" d="M24 10h2v1h-2z"/><path d="M26 10h1v1h-1z"/><path fill="#ffc4a1" d="M27 10h2v1h-2z"/><path fill="#ffdcc7" d="M29 10h2v1h-2z"/><path d="M31 10h1v1h-1zM2 11h1v1H2z"/><path fill="#fff" d="M3 11h2v1H3z"/><path fill="#fffcd9" d="M5 11h2v1H5z"/><path fill="#fff691" d="M7 11h2v1H7zm2 0h2v1H9zm2 0h1v1h-1z"/><path d="M12 11h1v1h-1z"/><path fill="#ff7aff" d="M13 11h2v1h-2z"/><path fill="#b300b3" d="M15 11h1v1h-1z"/><path d="M16 11h1v1h-1z"/><path fill="#730073" d="M17 11h2v1h-2z"/><path fill="#b300b3" d="M19 11h1v1h-1z"/><path fill="#730073" d="M20 11h1v1h-1z"/><path fill="#b300b3" d="M21 11h1v1h-1z"/><path fill="#730073" d="M22 11h2v1h-2z"/><path d="M24 11h2v1h-2z"/><path fill="#ffc4a1" d="M26 11h2v1h-2zm2 0h2v1h-2z"/><path fill="#ffdcc7" d="M30 11h2v1h-2z"/><path d="M32 11h1v1h-1zM2 12h1v1H2z"/><path fill="#fff" d="M3 12h2v1H3z"/><path fill="#fffcd9" d="M5 12h2v1H5z"/><path fill="#fff691" d="M7 12h2v1H7zm2 0h2v1H9zm2 0h1v1h-1z"/><path d="M12 12h1v1h-1z"/><path fill="#ff7aff" d="M13 12h1v1h-1z"/><path fill="#b300b3" d="M14 12h1v1h-1z"/><path d="M15 12h1v1h-1z"/><path fill="#730073" d="M16 12h2v1h-2zm2 0h2v1h-2z"/><path d="M20 12h2v1h-2zm2 0h2v1h-2zm2 0h1v1h-1z"/><path fill="#ffc4a1" d="M25 12h2v1h-2zm2 0h2v1h-2z"/><path d="M29 12h2v1h-2zm2 0h2v1h-2zM2 13h1v1H2z"/><path fill="#fff" d="M3 13h2v1H3z"/><path fill="#fffcd9" d="M5 13h2v1H5z"/><path fill="#fff691" d="M7 13h2v1H7zm2 0h2v1H9zm2 0h1v1h-1z"/><path d="M12 13h1v1h-1z"/><path fill="#ff7aff" d="M13 13h1v1h-1z"/><path fill="#730073" d="M14 13h1v1h-1z"/><path d="M15 13h1v1h-1z"/><path fill="#730073" d="M16 13h2v1h-2z"/><path d="M18 13h2v1h-2zm2 0h1v1h-1z"/><path fill="#ffc4a1" d="M21 13h2v1h-2zm2 0h2v1h-2zm2 0h2v1h-2zm2 0h1v1h-1z"/><path d="M28 13h1v1h-1z"/><path fill="#fff" d="M29 13h2v1h-2z"/><path d="M31 13h2v1h-2zm2 0h1v1h-1zM1 14h1v1H1z"/><path fill="#fff" d="M2 14h2v1H2z"/><path fill="#fffcd9" d="M4 14h2v1H4z"/><path fill="#fff691" d="M6 14h2v1H6zm2 0h2v1H8zm2 0h2v1h-2z"/><path d="M12 14h1v1h-1z"/><path fill="#ff7aff" d="M13 14h1v1h-1z"/><path fill="#730073" d="M14 14h1v1h-1z"/><path d="M15 14h1v1h-1z"/><path fill="#730073" d="M16 14h2v1h-2z"/><path d="M18 14h1v1h-1z"/><path fill="#ffc4a1" d="M19 14h2v1h-2zm2 0h1v1h-1z"/><path d="M22 14h2v1h-2zm2 0h1v1h-1z"/><path fill="#ffc4a1" d="M25 14h2v1h-2z"/><path d="M27 14h1v1h-1z"/><path fill="#ccc" d="M28 14h1v1h-1z"/><path fill="#fff" d="M29 14h1v1h-1z"/><path d="M30 14h2v1h-2zm2 0h2v1h-2zM1 15h1v1H1z"/><path fill="#fff" d="M2 15h1v1H2z"/><path fill="#fffcd9" d="M3 15h2v1H3z"/><path fill="#fff691" d="M5 15h2v1H5zm2 0h2v1H7zm2 0h2v1H9zm2 0h1v1h-1z"/><path d="M12 15h1v1h-1z"/><path fill="#ff7aff" d="M13 15h1v1h-1z"/><path fill="#b300b3" d="M14 15h2v1h-2z"/><path d="M16 15h1v1h-1z"/><path fill="#730073" d="M17 15h1v1h-1z"/><path fill="#b300b3" d="M18 15h1v1h-1z"/><path d="M19 15h2v1h-2zm2 0h1v1h-1z"/><path fill="#ff904f" d="M22 15h2v1h-2zm2 0h1v1h-1z"/><path fill="#ffc4a1" d="M25 15h2v1h-2z"/><path d="M27 15h1v1h-1z"/><path fill="#ccc" d="M28 15h1v1h-1z"/><path fill="#fff" d="M29 15h1v1h-1z"/><path d="M30 15h1v1h-1z"/><path fill="#fff" d="M31 15h1v1h-1z"/><path d="M32 15h2v1h-2zM0 16h1v1H0z"/><path fill="#fff" d="M1 16h1v1H1z"/><path fill="#fffcd9" d="M2 16h2v1H2z"/><path fill="#fff691" d="M4 16h2v1H4zm2 0h2v1H6zm2 0h2v1H8zm2 0h2v1h-2z"/><path fill="#a39e67" d="M12 16h1v1h-1z"/><path d="M13 16h1v1h-1z"/><path fill="#730073" d="M14 16h2v1h-2z"/><path d="M16 16h1v1h-1z"/><path fill="#b300b3" d="M17 16h1v1h-1z"/><path fill="#730073" d="M18 16h1v1h-1z"/><path fill="#b300b3" d="M19 16h1v1h-1z"/><path d="M20 16h2v1h-2zm2 0h1v1h-1z"/><path fill="#ffa875" d="M23 16h2v1h-2z"/><path fill="#ffc4a1" d="M25 16h2v1h-2z"/><path d="M27 16h1v1h-1z"/><path fill="#ccc" d="M28 16h1v1h-1z"/><path fill="#fff" d="M29 16h1v1h-1z"/><path d="M30 16h2v1h-2zm2 0h2v1h-2zm2 0h1v1h-1zM0 17h1v1H0z"/><path fill="#fffcd9" d="M1 17h2v1H1z"/><path fill="#fff691" d="M3 17h2v1H3zm2 0h2v1H5zm2 0h2v1H7zm2 0h2v1H9zm2 0h1v1h-1z"/><path fill="#a39e67" d="M12 17h1v1h-1z"/><path d="M13 17h1v1h-1z"/><path fill="#b300b3" d="M14 17h1v1h-1z"/><path fill="#730073" d="M15 17h1v1h-1z"/><path fill="#b300b3" d="M16 17h1v1h-1z"/><path d="M17 17h1v1h-1z"/><path fill="#730073" d="M18 17h2v1h-2z"/><path fill="#b300b3" d="M20 17h2v1h-2z"/><path d="M22 17h2v1h-2zm2 0h1v1h-1z"/><path fill="#ffa875" d="M25 17h1v1h-1z"/><path fill="#ffc4a1" d="M26 17h1v1h-1z"/><path d="M27 17h1v1h-1z"/><path fill="#ccc" d="M28 17h2v1h-2z"/><path fill="#fff" d="M30 17h1v1h-1z"/><path d="M31 17h2v1h-2zm2 0h1v1h-1z"/><path fill="#ffdcc7" d="M34 17h1v1h-1z"/><path d="M35 17h1v1h-1zM0 18h1v1H0z"/><path fill="#fffcd9" d="M1 18h2v1H1z"/><path fill="#fff691" d="M3 18h2v1H3zm2 0h2v1H5zm2 0h2v1H7zm2 0h2v1H9zm2 0h2v1h-2z"/><path fill="#a39e67" d="M13 18h1v1h-1z"/><path d="M14 18h1v1h-1z"/><path fill="#b300b3" d="M15 18h1v1h-1z"/><path fill="#730073" d="M16 18h2v1h-2z"/><path d="M18 18h2v1h-2zm2 0h2v1h-2z"/><path fill="#730073" d="M22 18h2v1h-2z"/><path d="M24 18h2v1h-2z"/><path fill="#ffc4a1" d="M26 18h2v1h-2z"/><path d="M28 18h1v1h-1z"/><path fill="#ccc" d="M29 18h2v1h-2z"/><path fill="#fff" d="M31 18h1v1h-1z"/><path d="M32 18h1v1h-1z"/><path fill="#ffc4a1" d="M33 18h2v1h-2z"/><path fill="#ffdcc7" d="M35 18h1v1h-1z"/><path d="M36 18h1v1h-1zM0 19h1v1H0z"/><path fill="#fffcd9" d="M1 19h1v1H1z"/><path fill="#fff691" d="M2 19h2v1H2zm2 0h2v1H4zm2 0h2v1H6zm2 0h2v1H8zm2 0h2v1h-2zm2 0h2v1h-2z"/><path d="M14 19h1v1h-1z"/><path fill="#730073" d="M15 19h2v1h-2zm2 0h1v1h-1z"/><path fill="#b300b3" d="M18 19h1v1h-1z"/><path fill="#730073" d="M19 19h2v1h-2zm2 0h2v1h-2z"/><path d="M23 19h1v1h-1z"/><path fill="#a39e67" d="M24 19h2v1h-2z"/><path d="M26 19h1v1h-1z"/><path fill="#ffc4a1" d="M27 19h2v1h-2z"/><path d="M29 19h2v1h-2zm2 0h1v1h-1z"/><path fill="#ffc4a1" d="M32 19h2v1h-2zm2 0h2v1h-2z"/><path fill="#ffdcc7" d="M36 19h1v1h-1z"/><path d="M37 19h1v1h-1zM0 20h1v1H0z"/><path fill="#fffcd9" d="M1 20h1v1H1z"/><path fill="#fff691" d="M2 20h2v1H2zm2 0h2v1H4zm2 0h2v1H6zm2 0h2v1H8zm2 0h2v1h-2zm2 0h2v1h-2z"/><path fill="#a39e67" d="M14 20h1v1h-1z"/><path d="M15 20h2v1h-2z"/><path fill="#b300b3" d="M17 20h1v1h-1z"/><path fill="#730073" d="M18 20h2v1h-2z"/><path fill="#b300b3" d="M20 20h1v1h-1z"/><path d="M21 20h2v1h-2z"/><path fill="#a39e67" d="M23 20h2v1h-2z"/><path fill="#fff691" d="M25 20h2v1h-2z"/><path d="M27 20h1v1h-1z"/><path fill="#ffc4a1" d="M28 20h2v1h-2zm2 0h2v1h-2zm2 0h2v1h-2zm2 0h2v1h-2zm2 0h1v1h-1z"/><path fill="#ffdcc7" d="M37 20h1v1h-1z"/><path d="M38 20h1v1h-1zM0 21h1v1H0z"/><path fill="#fff691" d="M1 21h2v1H1zm2 0h2v1H3zm2 0h2v1H5zm2 0h2v1H7zm2 0h2v1H9zm2 0h2v1h-2zm2 0h2v1h-2z"/><path fill="#a39e67" d="M15 21h2v1h-2z"/><path d="M17 21h2v1h-2zm2 0h2v1h-2z"/><path fill="#a39e67" d="M21 21h2v1h-2z"/><path fill="#fff691" d="M23 21h2v1h-2zm2 0h2v1h-2z"/><path d="M27 21h1v1h-1z"/><path fill="#ffc4a1" d="M28 21h2v1h-2zm2 0h2v1h-2zm2 0h2v1h-2zm2 0h2v1h-2zm2 0h2v1h-2z"/><path fill="#ffdcc7" d="M38 21h1v1h-1z"/><path d="M39 21h1v1h-1zM0 22h1v1H0z"/><path fill="#fff691" d="M1 22h2v1H1zm2 0h2v1H3zm2 0h2v1H5zm2 0h2v1H7zm2 0h2v1H9zm2 0h2v1h-2zm2 0h2v1h-2zm2 0h2v1h-2z"/><path fill="#a39e67" d="M17 22h2v1h-2zm2 0h2v1h-2z"/><path fill="#fff691" d="M21 22h2v1h-2zm2 0h2v1h-2zm2 0h2v1h-2z"/><path fill="#c2bc7a" d="M27 22h1v1h-1z"/><path d="M28 22h1v1h-1z"/><path fill="#ffc4a1" d="M29 22h2v1h-2zm2 0h2v1h-2zm2 0h2v1h-2zm2 0h2v1h-2zm2 0h1v1h-1z"/><path fill="#ffa875" d="M38 22h1v1h-1z"/><path d="M39 22h1v1h-1zM0 23h1v1H0z"/><path fill="#fff691" d="M1 23h2v1H1zm2 0h2v1H3zm2 0h2v1H5zm2 0h2v1H7zm2 0h2v1H9zm2 0h2v1h-2zm2 0h2v1h-2zm2 0h2v1h-2zm2 0h2v1h-2zm2 0h2v1h-2zm2 0h2v1h-2zm2 0h2v1h-2z"/><path fill="#c2bc7a" d="M25 23h2v1h-2zm2 0h1v1h-1z"/><path d="M28 23h1v1h-1z"/><path fill="#ffa875" d="M29 23h1v1h-1z"/><path fill="#ffc4a1" d="M30 23h2v1h-2zm2 0h2v1h-2zm2 0h2v1h-2zm2 0h1v1h-1z"/><path fill="#ffa875" d="M37 23h2v1h-2z"/><path d="M39 23h1v1h-1zM0 24h1v1H0z"/><path fill="#c2bc7a" d="M1 24h1v1H1z"/><path fill="#fff691" d="M2 24h2v1H2zm2 0h2v1H4z"/><path fill="#c2bc7a" d="M6 24h2v1H6z"/><path fill="#fff691" d="M8 24h2v1H8zm2 0h2v1h-2z"/><path fill="#c2bc7a" d="M12 24h1v1h-1z"/><path fill="#fff691" d="M13 24h2v1h-2zm2 0h2v1h-2zm2 0h2v1h-2zm2 0h2v1h-2zm2 0h1v1h-1z"/><path fill="#c2bc7a" d="M22 24h2v1h-2zm2 0h1v1h-1z"/><path fill="#fff691" d="M25 24h1v1h-1z"/><path fill="#c2bc7a" d="M26 24h2v1h-2z"/><path d="M28 24h1v1h-1z"/><path fill="#ffa875" d="M29 24h2v1h-2zm2 0h1v1h-1z"/><path fill="#ffc4a1" d="M32 24h2v1h-2zm2 0h2v1h-2z"/><path fill="#ffa875" d="M36 24h2v1h-2zm2 0h1v1h-1z"/><path d="M39 24h1v1h-1zM0 25h1v1H0z"/><path fill="#c2bc7a" d="M1 25h2v1H1zm2 0h1v1H3z"/><path fill="#fff691" d="M4 25h2v1H4zm2 0h2v1H6z"/><path fill="#c2bc7a" d="M8 25h2v1H8zm2 0h2v1h-2z"/><path fill="#fff691" d="M12 25h2v1h-2zm2 0h2v1h-2z"/><path fill="#c2bc7a" d="M16 25h1v1h-1z"/><path fill="#fff691" d="M17 25h2v1h-2z"/><path fill="#c2bc7a" d="M19 25h1v1h-1z"/><path fill="#fff691" d="M20 25h2v1h-2zm2 0h2v1h-2zm2 0h1v1h-1z"/><path fill="#c2bc7a" d="M25 25h2v1h-2zm2 0h1v1h-1z"/><path d="M28 25h1v1h-1z"/><path fill="#ff904f" d="M29 25h1v1h-1z"/><path fill="#ffa875" d="M30 25h2v1h-2zm2 0h2v1h-2zm2 0h2v1h-2zm2 0h2v1h-2zm2 0h1v1h-1z"/><path d="M39 25h1v1h-1zM1 26h1v1H1z"/><path fill="#c2bc7a" d="M2 26h2v1H2zm2 0h2v1H4z"/><path fill="#fff691" d="M6 26h2v1H6zm2 0h1v1H8z"/><path fill="#c2bc7a" d="M9 26h2v1H9z"/><path fill="#fff691" d="M11 26h2v1h-2zm2 0h2v1h-2z"/><path fill="#c2bc7a" d="M15 26h1v1h-1z"/><path fill="#fff691" d="M16 26h2v1h-2zm2 0h2v1h-2z"/><path fill="#c2bc7a" d="M20 26h2v1h-2zm2 0h2v1h-2zm2 0h2v1h-2zm2 0h2v1h-2zm2 0h1v1h-1z"/><path d="M29 26h1v1h-1z"/><path fill="#ff904f" d="M30 26h1v1h-1z"/><path fill="#ffa875" d="M31 26h2v1h-2zm2 0h2v1h-2zm2 0h2v1h-2zm2 0h1v1h-1z"/><path fill="#ff904f" d="M38 26h1v1h-1z"/><path d="M39 26h1v1h-1zM1 27h1v1H1z"/><path fill="#fff691" d="M2 27h2v1H2zm2 0h2v1H4zm2 0h1v1H6z"/><path fill="#c2bc7a" d="M7 27h1v1H7z"/><path fill="#fff691" d="M8 27h2v1H8z"/><path fill="#c2bc7a" d="M10 27h2v1h-2zm2 0h2v1h-2zm2 0h1v1h-1z"/><path fill="#fff691" d="M15 27h2v1h-2zm2 0h1v1h-1z"/><path fill="#c2bc7a" d="M18 27h1v1h-1z"/><path fill="#fff691" d="M19 27h2v1h-2zm2 0h2v1h-2z"/><path fill="#c2bc7a" d="M23 27h2v1h-2zm2 0h2v1h-2zm2 0h2v1h-2z"/><path fill="#a39e67" d="M29 27h1v1h-1z"/><path d="M30 27h1v1h-1z"/><path fill="#ff904f" d="M31 27h2v1h-2z"/><path fill="#ffa875" d="M33 27h2v1h-2zm2 0h1v1h-1z"/><path fill="#ff904f" d="M36 27h2v1h-2z"/><path d="M38 27h1v1h-1zM2 28h1v1H2z"/><path fill="#fff691" d="M3 28h2v1H3z"/><path fill="#c2bc7a" d="M5 28h2v1H5zm2 0h2v1H7z"/><path fill="#fff691" d="M9 28h2v1H9z"/><path fill="#c2bc7a" d="M11 28h2v1h-2zm2 0h1v1h-1z"/><path fill="#fff691" d="M14 28h2v1h-2z"/><path fill="#c2bc7a" d="M16 28h2v1h-2zm2 0h2v1h-2zm2 0h2v1h-2zm2 0h2v1h-2zm2 0h2v1h-2z"/><path fill="#a39e67" d="M26 28h2v1h-2z"/><path fill="#c2bc7a" d="M28 28h1v1h-1z"/><path fill="#a39e67" d="M29 28h2v1h-2z"/><path d="M31 28h1v1h-1z"/><path fill="#ff904f" d="M32 28h2v1h-2zm2 0h2v1h-2zm2 0h1v1h-1z"/><path d="M37 28h1v1h-1zM2 29h1v1H2z"/><path fill="#c2bc7a" d="M3 29h2v1H3zm2 0h2v1H5zm2 0h2v1H7zm2 0h2v1H9zm2 0h2v1h-2zm2 0h2v1h-2zm2 0h2v1h-2zm2 0h1v1h-1z"/><path fill="#a39e67" d="M18 29h2v1h-2z"/><path fill="#c2bc7a" d="M20 29h2v1h-2zm2 0h1v1h-1z"/><path fill="#a39e67" d="M23 29h2v1h-2zm2 0h2v1h-2z"/><path fill="#c2bc7a" d="M27 29h2v1h-2zm2 0h2v1h-2z"/><path d="M31 29h1v1h-1z"/><path fill="#ff904f" d="M32 29h2v1h-2zm2 0h2v1h-2zm2 0h1v1h-1z"/><path d="M37 29h1v1h-1zM3 30h1v1H3z"/><path fill="#a39e67" d="M4 30h1v1H4z"/><path fill="#c2bc7a" d="M5 30h2v1H5zm2 0h2v1H7zm2 0h1v1H9z"/><path fill="#a39e67" d="M10 30h2v1h-2z"/><path fill="#c2bc7a" d="M12 30h2v1h-2zm2 0h1v1h-1z"/><path fill="#a39e67" d="M15 30h2v1h-2z"/><path fill="#c2bc7a" d="M17 30h2v1h-2z"/><path fill="#a39e67" d="M19 30h2v1h-2zm2 0h2v1h-2zm2 0h2v1h-2zm2 0h1v1h-1z"/><path fill="#c2bc7a" d="M26 30h2v1h-2z"/><path fill="#a39e67" d="M28 30h2v1h-2zm2 0h1v1h-1z"/><path d="M31 30h1v1h-1z"/><path fill="#ff904f" d="M32 30h2v1h-2zm2 0h1v1h-1z"/><path d="M35 30h2v1h-2zM4 31h1v1H4z"/><path fill="#a39e67" d="M5 31h2v1H5z"/><path fill="#c2bc7a" d="M7 31h2v1H7z"/><path fill="#a39e67" d="M9 31h2v1H9zm2 0h2v1h-2zm2 0h2v1h-2zm2 0h1v1h-1z"/><path fill="#c2bc7a" d="M16 31h2v1h-2zm2 0h2v1h-2z"/><path fill="#a39e67" d="M20 31h2v1h-2zm2 0h2v1h-2zm2 0h2v1h-2zm2 0h2v1h-2zm2 0h2v1h-2zm2 0h1v1h-1z"/><path d="M31 31h2v1h-2zm2 0h2v1h-2zM5 32h1v1H5z"/><path fill="#a39e67" d="M6 32h2v1H6zm2 0h2v1H8zm2 0h2v1h-2zm2 0h2v1h-2zm2 0h2v1h-2z"/><path fill="#c2bc7a" d="M16 32h1v1h-1z"/><path fill="#a39e67" d="M17 32h2v1h-2zm2 0h2v1h-2zm2 0h2v1h-2zm2 0h2v1h-2zm2 0h2v1h-2zm2 0h2v1h-2zm2 0h1v1h-1z"/><path d="M30 32h1v1h-1zM6 33h2v1H6z"/><path fill="#a39e67" d="M8 33h2v1H8zm2 0h2v1h-2zm2 0h2v1h-2zm2 0h2v1h-2zm2 0h2v1h-2zm2 0h2v1h-2zm2 0h2v1h-2z"/><path d="M22 33h1v1h-1z"/><path fill="#a39e67" d="M23 33h2v1h-2zm2 0h2v1h-2zm2 0h2v1h-2z"/><path d="M29 33h1v1h-1zM8 34h2v1H8zm2 0h2v1h-2zm2 0h1v1h-1z"/><path fill="#a39e67" d="M13 34h2v1h-2zm2 0h2v1h-2zm2 0h2v1h-2z"/><path d="M19 34h2v1h-2zm2 0h2v1h-2zm2 0h2v1h-2zm2 0h2v1h-2zm2 0h2v1h-2zM8 35h1v1H8z"/><path fill="#ff904f" d="M9 35h2v1H9zm2 0h1v1h-1z"/><path d="M12 35h2v1h-2zm2 0h2v1h-2zm2 0h2v1h-2zm2 0h1v1h-1zm4 0h1v1h-1z"/><path fill="#ff904f" d="M23 35h1v1h-1z"/><path d="M24 35h1v1h-1z"/><path fill="#ff904f" d="M25 35h2v1h-2zm2 0h1v1h-1z"/><path d="M28 35h1v1h-1zM8 36h1v1H8z"/><path fill="#ff904f" d="M9 36h1v1H9z"/><path fill="#ffa875" d="M10 36h1v1h-1z"/><path fill="#ffc4a1" d="M11 36h1v1h-1z"/><path d="M12 36h1v1h-1z"/><path fill="#ff904f" d="M13 36h1v1h-1z"/><path d="M14 36h1v1h-1zm8 0h1v1h-1z"/><path fill="#ff904f" d="M23 36h1v1h-1z"/><path d="M24 36h1v1h-1z"/><path fill="#ff904f" d="M25 36h1v1h-1z"/><path fill="#ffa875" d="M26 36h1v1h-1z"/><path fill="#ffc4a1" d="M27 36h1v1h-1z"/><path d="M28 36h1v1h-1zM8 37h1v1H8z"/><path fill="#ff904f" d="M9 37h1v1H9z"/><path fill="#ffa875" d="M10 37h1v1h-1z"/><path fill="#ffc4a1" d="M11 37h1v1h-1z"/><path d="M12 37h1v1h-1z"/><path fill="#ff904f" d="M13 37h1v1h-1z"/><path d="M14 37h1v1h-1zm8 0h1v1h-1z"/><path fill="#ff904f" d="M23 37h1v1h-1z"/><path d="M24 37h1v1h-1z"/><path fill="#ff904f" d="M25 37h1v1h-1z"/><path fill="#ffa875" d="M26 37h1v1h-1z"/><path fill="#ffc4a1" d="M27 37h1v1h-1z"/><path d="M28 37h1v1h-1zM8 38h1v1H8z"/><path fill="#ff904f" d="M9 38h1v1H9z"/><path fill="#ffa875" d="M10 38h1v1h-1z"/><path fill="#ffc4a1" d="M11 38h1v1h-1z"/><path d="M12 38h2v1h-2zm2 0h1v1h-1zm8 0h2v1h-2zm2 0h1v1h-1z"/><path fill="#ff904f" d="M25 38h1v1h-1z"/><path fill="#ffa875" d="M26 38h1v1h-1z"/><path fill="#ffc4a1" d="M27 38h1v1h-1z"/><path d="M28 38h1v1h-1zM8 39h2v1H8zm2 0h2v1h-2zm2 0h1v1h-1zm12 0h2v1h-2zm2 0h2v1h-2zm2 0h1v1h-1z"/></svg>